<?xml version="1.0" standalone="no"?>
<!DOCTYPE svg PUBLIC "-//W3C//DTD SVG 20010904//EN"
 "http://www.w3.org/TR/2001/REC-SVG-20010904/DTD/svg10.dtd">
<svg version="1.0" xmlns="http://www.w3.org/2000/svg"
 width="500.000000pt" height="500.000000pt" viewBox="0 0 500.000000 500.000000"
 preserveAspectRatio="xMidYMid meet">

<g transform="translate(0.000000,500.000000) scale(0.100000,-0.100000)"
fill="#000000" stroke="none">
<path d="M908 2485 c21 -15 22 -23 22 -134 0 -80 -4 -121 -12 -130 -11 -10 5
-12 85 -9 94 3 100 4 123 31 31 36 30 52 -5 87 -28 29 -28 29 -9 47 27 24 20
71 -14 96 -22 17 -47 22 -120 25 -88 4 -92 3 -70 -13z m162 -25 c43 -43 9
-100 -60 -100 l-40 0 0 60 0 60 40 0 c27 0 47 -7 60 -20z m5 -135 c32 -31 31
-50 0 -81 -20 -20 -34 -25 -63 -22 l-37 3 -3 63 -3 62 41 0 c30 0 47 -6 65
-25z"/>
<path d="M1418 2484 c21 -14 22 -23 22 -127 0 -114 -4 -130 -30 -140 -8 -3 35
-6 97 -6 l111 -1 11 32 c14 39 9 46 -12 15 -11 -17 -28 -26 -61 -30 -76 -11
-76 -11 -76 128 0 117 1 122 23 133 18 9 11 11 -43 11 -61 1 -63 0 -42 -15z"/>
<path d="M1888 2490 c20 -9 22 -16 22 -92 0 -145 24 -187 108 -196 44 -4 53
-1 83 26 l34 30 3 110 c3 101 5 111 25 120 18 9 12 11 -33 11 -43 0 -50 -2
-32 -9 21 -9 22 -15 22 -114 0 -123 -11 -144 -76 -153 -34 -4 -46 -1 -63 16
-19 19 -21 32 -21 131 0 105 1 111 23 120 16 6 4 9 -48 9 -52 0 -64 -3 -47 -9z"/>
<path d="M2428 2484 c21 -14 22 -22 22 -139 0 -89 -3 -125 -12 -128 -7 -3 7
-5 32 -6 37 0 41 2 23 9 -22 9 -23 15 -23 117 l1 108 30 -65 c17 -36 42 -89
55 -119 15 -33 28 -51 33 -45 5 5 30 56 56 114 26 58 49 107 51 109 2 2 4 -44
4 -103 0 -101 -1 -107 -22 -116 -18 -7 -11 -9 32 -9 30 1 49 3 43 6 -10 3 -13
39 -13 128 0 117 1 125 23 140 22 16 21 16 -18 13 l-40 -3 -54 -110 -55 -110
-53 113 -53 112 -42 0 c-41 0 -42 0 -20 -16z"/>
<path d="M3038 2483 c21 -14 22 -22 22 -132 0 -78 -4 -121 -12 -129 -9 -9 -3
-12 28 -11 21 1 32 3 23 6 -22 6 -25 22 -19 126 l5 88 49 -111 c27 -60 52
-110 56 -110 3 0 28 50 55 110 27 61 50 110 52 110 2 0 3 -47 3 -104 0 -91 -2
-105 -17 -109 -10 -3 6 -5 35 -6 47 -1 52 1 39 13 -21 22 -12 245 11 264 13
10 10 12 -22 12 l-37 0 -51 -110 c-28 -60 -54 -110 -57 -110 -3 0 -28 50 -55
110 l-49 110 -41 -1 c-40 0 -41 0 -18 -16z"/>
<path d="M3710 2369 c-30 -72 -64 -138 -75 -145 -18 -13 -16 -14 25 -14 38 0
42 2 26 13 -17 12 -17 15 0 50 18 38 18 38 73 35 54 -3 56 -4 70 -41 12 -33
12 -40 0 -48 -9 -6 2 -9 34 -9 47 0 47 0 30 20 -10 10 -40 75 -68 144 -27 69
-52 126 -55 126 -3 0 -30 -59 -60 -131z m79 -1 l20 -48 -50 0 c-37 0 -50 3
-46 13 45 112 43 111 76 35z"/>
</g>
</svg>
